<svg xmlns="http://www.w3.org/2000/svg" version="1.1" xmlns:xlink="http://www.w3.org/1999/xlink" xmlns:svgjs="http://svgjs.dev/svgjs" viewBox="0 0 6.8880614645378335 6.9077716386674455"><g transform="matrix(1,0,0,1,1.907220049338223,2.399201140825597)"><g><path d=" M 0.19704999431279302 -0.8966370171576916 L -0.11590301288318774 -0.6379936037735645 L -0.05900662175946667 -0.4294443273972209 L -0.10140173357173007 -0.3944064265693219 L -0.29913454404410245 -1.1391115599360102 L -0.2598227130909127 -1.1716012497946073 L 0.4343183156923256 -0.8371580824855 L 0.39192320388006224 -0.802120181657601 L 0.19704999431279302 -0.8966370171576916 M 0.15501114231219915 -0.9176782842885506 L -0.24418908510466736 -1.1118719464671143 L -0.127879876507813 -0.6838799278551155 L 0.15501114231219915 -0.9176782842885506 M 0.9855920896211681 -1.3648409613434938 Q 1.0377939327666286 -1.33551149540535 1.0617032753963507 -1.267597260262675 Q 1.0912578794803127 -1.1836477196002018 1.0458859789518793 -1.1167867396310305 Q 1.0005140784234459 -1.0499257596618592 0.8797776603920235 -1.0074202616534642 L 0.5854826414404318 -0.9038131102580016 L 0.3530306992070222 -1.5640903963673418 L 0.6284606528412041 -1.6610560636989928 Q 0.7359915251504395 -1.6989125228627195 0.8113295579815776 -1.6761379579023439 Q 0.8866675908127157 -1.6533633929419684 0.915225972287106 -1.5722436120771068 Q 0.9351504244785411 -1.5156484161248776 0.9190529889344349 -1.4665146948236842 Q 0.9029555533903284 -1.4173809735224907 0.8579972126907527 -1.3824704077645307 Q 0.9333902464757075 -1.3941704272816375 0.9855920896211681 -1.3648409613434938 M 0.4157478807068027 -1.5395230370317603 L 0.508396583396976 -1.2763553758538948 L 0.7338341139400222 -1.3557211104164446 Q 0.8206134144001069 -1.3862719371099783 0.8555158168474302 -1.4361951011063145 Q 0.8904182192947535 -1.4861182651026508 0.8675050992746032 -1.5512027404477142 Q 0.8449240534576433 -1.6153439625269075 0.7864443825837883 -1.6323917804073758 Q 0.7279647117099337 -1.649439598287844 0.641185411249849 -1.6188887715943103 L 0.4157478807068027 -1.5395230370317603 M 0.9991103908153621 -1.1337143606831133 Q 1.0368425530602967 -1.1846337472890212 1.0122690620241936 -1.2544344889634371 Q 0.9876955709880902 -1.324235230637853 0.9265521774182193 -1.3398151992758145 Q 0.8654087838483482 -1.355395167913776 0.7691969507295586 -1.321523599188336 L 0.5230078483373617 -1.2348522321555933 L 0.6189772930594408 -0.9622520383190228 L 0.8651663954516378 -1.0489234053517655 Q 0.9613782285704273 -1.0827949740772052 0.9991103908153621 -1.1337143606831133 M 1.9381915667231493 -1.7974605350552513 L 1.9109654809865666 -1.097990206695667 L 1.8600040713489399 -1.099973821513618 L 1.8729559092779142 -1.4327218491475344 L 1.4053100326032206 -1.4509244321828496 L 1.3923581946742465 -1.1181764045489333 L 1.3413967850366195 -1.1201600193668844 L 1.3686228707732022 -1.8196303477264686 L 1.4195842804108292 -1.8176467329085173 L 1.407060280972001 -1.4958903818631086 L 1.8747061576466946 -1.4776877988277934 L 1.8872301570855226 -1.7994441498732021 L 1.9381915667231493 -1.7974605350552513 M 2.6567881511293745 -1.0393973363332265 L 2.2821973842270333 -1.1959788082624294 L 2.124105935398557 -1.0485437588090745 L 2.0733608807689294 -1.0697555345630305 L 2.6404181647418263 -1.5914163790714924 L 2.6874726699438445 -1.571747277917824 L 2.714593843816041 -0.8017158227630401 L 2.6638487891864133 -0.8229275985169962 L 2.6567881511293745 -1.0393973363332265 M 2.655841793301324 -1.0863984470313928 L 2.641886654260356 -1.5301069708331645 L 2.3172338833181727 -1.2279388416077905 L 2.655841793301324 -1.0863984470313928 M 3.1248337758636375 -0.7563013343261047 L 2.967888985762199 -0.5734097466026244 L 2.9291857867003834 -0.6066221295701488 L 3.086130576801822 -0.7895137172936291 L 3.1710360992853857 -1.321487449964513 L 3.213533729627771 -1.2850189510197805 L 3.1372279959026583 -0.8075983450540636 L 3.5975301752214683 -0.9555000141263039 L 3.6377511467955115 -0.9209851847678963 L 3.1248337758636375 -0.7563013343261047" fill="#1c3423" fill-rule="nonzero"></path></g><g><path d=" M -0.9289445153441733 1.621566624824836 L -1.1035088819157028 1.5166796288554567 L -1.2823477674361428 1.5599537900351608 L -1.2997515061714586 1.4880294556410707 L -0.6193861808219592 1.3233994946313268 L -0.6019824420866434 1.3953238290254169 L -1.013117488690698 1.4948073626070193 L -0.5053211364080652 1.7947954700520516 L -0.4853303554283105 1.8774112595587764 L -0.8646999073165158 1.6574641225004771 L -1.1607567819475177 2.0624521803290055 L -1.1814531199030283 1.9769205394279254 L -0.9289445153441733 1.621566624824836 M -0.6781251143804152 2.779164505542188 L -0.7322016126341647 2.813395081590689 L -0.9969537242592919 2.3951471654093455 L -0.405492024608907 2.020750239878863 L -0.14876270424514737 2.4263239767819837 L -0.20283920249889675 2.460554552830485 L -0.41998941930657685 2.117506767033262 L -0.6303807953250709 2.2506851019719623 L -0.4367640995507355 2.5565552952197326 L -0.48999565251927013 2.5902510185174763 L -0.6836123482936056 2.2843808252697055 L -0.9032981224494627 2.423442540466742 L -0.6781251143804152 2.779164505542188 M -0.40998337151677455 3.1258926632789428 Q -0.44844884664798634 3.0606419374367717 -0.45176490299949085 3.0041529670949996 L -0.39282011760092334 2.9793434472625475 Q -0.3883310566844498 3.0328957425643197 -0.3553886957147793 3.091513579898564 Q -0.32244633474510886 3.1501314172328083 -0.2712782970263924 3.19338453175669 Q -0.19949030380908872 3.254068005864822 -0.14132418106500533 3.258062022004027 Q -0.08315805832092193 3.2620560381432315 -0.04765177027892964 3.220052425090554 Q -0.0205378775923174 3.187976938759418 -0.023873058170380546 3.1524223810978227 Q -0.02720823874844369 3.1168678234362273 -0.04675003500993785 3.0826717973677753 Q -0.06629183127143201 3.048475771299323 -0.10636706495879295 2.993648992760881 Q -0.1537881498737328 2.9273750106450454 -0.17773912232280542 2.8829047855641696 Q -0.20169009477187805 2.8384345604832935 -0.20274249643858705 2.78778732511223 Q -0.20379489810529605 2.7371400897411666 -0.1618329213283961 2.6874994561334566 Q -0.12761777103338534 2.647023247191785 -0.0781518674824464 2.6318781362351364 Q -0.028685963931507463 2.6167330252784873 0.03239354599843991 2.634319766497868 Q 0.09347305592838728 2.6519065077172486 0.1591514327016651 2.7074254308374543 Q 0.20497355603185896 2.7461595632469007 0.23823453781069692 2.7958808573884233 Q 0.271495519589535 2.845602151529946 0.28484950858943847 2.8948634038261516 L 0.2276683936659023 2.923782603263573 Q 0.21278700055499244 2.8732302132203857 0.18396264644544713 2.8298780897410505 Q 0.1551382923359017 2.7865259662617152 0.11848059367174657 2.755538660334158 Q 0.04822000456544939 2.6961463239730072 -0.010209836024373087 2.693238794326051 Q -0.06863967661419568 2.690331264679095 -0.10479153352967874 2.733098579787276 Q -0.13190542621629098 2.765174066118412 -0.1288930300749732 2.801110474807759 Q -0.12588063393365545 2.8370468834971057 -0.10519328458890642 2.872211262875794 Q -0.08450593524415739 2.907375642254482 -0.04519440361229976 2.961556851919434 Q 0.0013448460651244165 3.0257759942327844 0.025677669541948722 3.0705690037504056 Q 0.05001049301877292 3.115362013268027 0.05100382809447568 3.1653046131745937 Q 0.05199716317017844 3.21524721308116 0.01068075526676926 3.264124144633367 Q -0.023534395028241506 3.3046003535750383 -0.07338214960693207 3.3194226800949416 Q -0.12322990418562257 3.3342450066148452 -0.1847503317343278 3.3156308454942223 Q -0.24627075928303294 3.2970166843735993 -0.3119491360563108 3.2414977612533935 Q -0.3715178963855628 3.1911433891211134 -0.40998337151677455 3.1258926632789428 M 0.7140577307565652 3.6035332337523136 L 0.3527479400344977 3.4567162213580556 L 0.2045304945514721 3.598337508086027 L 0.13319497176788442 3.5693505594851094 L 0.6931720017859421 3.041311047845918 L 0.7608017831262265 3.0687921809351 L 0.7937433840366899 3.8377621744520485 L 0.7214814258922764 3.808398771973197 L 0.7140577307565652 3.6035332337523136 M 0.7116312086903079 3.537782857398547 L 0.6975367261747537 3.1261989102351295 L 0.40034892745283446 3.4112943544127243 L 0.7116312086903079 3.537782857398547 M 1.6431183645167486 3.921837233421607 L 1.4934368048822417 3.6898449259944393 Q 1.466328915606376 3.691623222653438 1.4373584696547015 3.690314306551806 L 1.2495500614162605 3.6818289194101914 L 1.2395300829830775 3.9036026780747335 L 1.1656054967615634 3.9002626852636726 L 1.197200023352681 3.2009760588439455 L 1.458933017812636 3.212801438796621 Q 1.5927964577272695 3.2188495338869205 1.6658303633073661 3.2862145740466167 Q 1.7388642688874631 3.3535796142063132 1.7338091446328843 3.4654654744334694 Q 1.730108071517925 3.5473819078140663 1.686100234733901 3.6019512242986136 Q 1.642092397949877 3.656520540783161 1.564042493094024 3.6780196652302712 L 1.7240358170024601 3.9254931714985792 L 1.6431183645167486 3.921837233421607 M 1.5991181892923143 3.5885115899733133 Q 1.6561383502584235 3.5450408958978903 1.6598845584113704 3.4621254816224085 Q 1.6637210366402917 3.377212105557156 1.6108307316500214 3.3292760477505716 Q 1.5579404266597512 3.2813399899439872 1.4540464135916775 3.276645945993307 L 1.268235967143007 3.268250828927667 L 1.252393568809461 3.618893123032416 L 1.4382040152581315 3.6272882400980557 Q 1.5420980283262051 3.6319822840487364 1.5991181892923143 3.5885115899733133 M 2.8419829201298965 2.8623806354685017 L 2.881400689033288 3.600040610995627 L 2.808923279681181 3.628868117540715 L 2.3977964806478522 3.1499017772655256 L 2.427023084248925 3.780766902028296 L 2.3554748724526138 3.8092248251561394 L 1.8774758572133952 3.2460082225685225 L 1.9480948714539097 3.217919882857924 L 2.3582819949060734 3.702640961163829 L 2.329995066886166 3.066021098370343 L 2.394109698236107 3.0405198425804576 L 2.8091223621631896 3.5265501798847723 L 2.7760098936683635 2.888621058092877 L 2.8419829201298965 2.8623806354685017 M 3.6006836692985824 2.773645106706227 L 3.329212299686233 3.053650991431522 L 3.4050007750610862 3.2441269925454557 L 3.35140258157352 3.299410205683527 L 3.071573655851072 2.5824054830149654 L 3.1223875275990247 2.529994125104846 L 3.847707931659687 2.787502011301129 L 3.793413657737217 2.8435031882461876 L 3.6006836692985824 2.773645106706227 M 3.538811669136913 2.751265303400694 L 3.1519157646456675 2.610156979450966 L 3.30492864300935 2.9925011425486403 L 3.538811669136913 2.751265303400694 M 3.645871053273762 1.6401401294747204 L 4.288335021109285 1.9180610715302562 L 4.264116196158731 1.9740472172987804 L 3.564139113793634 2.1615467750679818 L 4.085452733408744 2.3870597680501877 L 4.056072519534301 2.454977387507086 L 3.4136085516987786 2.17705644545155 L 3.4378273766493326 2.121070299683026 L 4.138201488931652 1.9326529362454883 L 3.616887869316542 1.7071399432632821 L 3.645871053273762 1.6401401294747204 M 3.68045367918703 1.393451118001455 L 3.690978695641855 1.3202034284227 L 4.38386224571116 1.4197643948872614 L 4.373337229256335 1.4930120844660164 L 3.68045367918703 1.393451118001455" fill="#67a97b" fill-rule="nonzero"></path></g><g clip-path="url(#SvgjsClipPath1001)"><g clip-path="url(#b15e4569d-9863-4d46-a648-ef4c70cf1b69dd52b24f-dd3d-45c1-b8ab-02f0d9249e81)"><path d=" M 1.5422028624253827 0.3916578537326853 C 1.6795463268129642 0.3916578537326853 1.80860138516753 0.445151124571536 1.9057231981924392 0.5422220884796786 L 1.99796349600772 0.449981790664398 C 1.877217439916037 0.3289108752557838 1.7131932999415835 0.2609624615856792 1.5422028624253827 0.2611790201086445 C 1.371212424909182 0.26096246158567915 1.2071882849347284 0.3289108752557838 1.0864422288430455 0.449981790664398 L 1.1786825266583263 0.5422220884796786 C 1.2748845813633243 0.445498677937192 1.4057839765907743 0.3912822687515044 1.5422028624253825 0.39165785373268536" fill="#1c3423" transform="matrix(1,0,0,1,0,0)" fill-rule="nonzero"></path></g><g clip-path="url(#b15e4569d-9863-4d46-a648-ef4c70cf1b69dd52b24f-dd3d-45c1-b8ab-02f0d9249e81)"><path d=" M 1.5422028624253827 0.6532257103819701 C 1.609222719117582 0.6530453194687837 1.6735288340006804 0.6796869473602725 1.7207849605109755 0.727211175277909 L 1.8130252583262563 0.6349200283458615 C 1.7412648610248713 0.5629951228053213 1.643803710586108 0.5226272486280941 1.5422028624253827 0.5227468767579293 C 1.4406020142646574 0.5226272486280941 1.3431408638258941 0.5629951228053214 1.2713804665245092 0.6349200283458615 L 1.36362076433979 0.727211175277909 C 1.410876890850085 0.6796869473602725 1.4751830057331834 0.6530453194687837 1.5422028624253827 0.6532257103819701" fill="#1c3423" transform="matrix(1,0,0,1,0,0)" fill-rule="nonzero"></path></g><g clip-path="url(#b15e4569d-9863-4d46-a648-ef4c70cf1b69dd52b24f-dd3d-45c1-b8ab-02f0d9249e81)"><path d=" M 1.6268666418423847 0.990457052780504 C 1.580108127607336 1.037229608611419 1.5042862142809115 1.037240991573936 1.4575136584499968 0.9904824773388875 C 1.4107411026190817 0.9437239631038389 1.4107297196565645 0.8679020497774145 1.4574882338916133 0.8211294939464995 C 1.5042467481266617 0.7743569381155845 1.580068661453086 0.7743455551530674 1.6268412172840012 0.8211040693881161 C 1.673613773114916 0.8678625836231645 1.6736251560774333 0.9436844969495891 1.6268666418423847 0.990457052780504" fill="#1c3423" transform="matrix(1,0,0,1,0,0)" fill-rule="nonzero"></path></g><g clip-path="url(#b15e4569d-9863-4d46-a648-ef4c70cf1b69dd52b24f-dd3d-45c1-b8ab-02f0d9249e81)"><path d=" M 1.5422028624253827 0.1304967900175358 C 1.7493113150172448 0.1304967900175358 1.9440125831179664 0.2111434892099476 2.090407190290068 0.3575889454988164 L 2.182698337222116 0.26534864768353583 C 2.013015608718903 0.0951951928563457 1.7825033569749136 -0.00029646557491304473 1.5422028624253823 0.000017956393494937757 C 1.3019023678758515 -0.00029646557491285635 1.071390116131862 0.09519519285634605 0.9017073876286493 0.2653486476835359 L 0.9939985345606971 0.3575889454988164 C 1.1390606685210276 0.21169972833042855 1.336469155718409 0.12992379809914176 1.542202862425383 0.1304967900175358" fill="#1c3423" transform="matrix(1,0,0,1,0,0)" fill-rule="nonzero"></path></g><g clip-path="url(#b15e4569d-9863-4d46-a648-ef4c70cf1b69dd52b24f-dd3d-45c1-b8ab-02f0d9249e81)"><path d=" M 1.0297963127646426 1.681089756709468 L 0.6777678773869208 1.681089756709468 L 0.6777678773869208 1.6808863602424002 L 0.54728904376288 1.6808863602424002 L 0.54728904376288 1.681089756709468 C 0.3174510359761832 1.681089756709468 0.13042798450727364 1.4940667052405585 0.13042798450727364 1.2642286974538617 C 0.13042798450727364 1.0343398405503976 0.3174510359761832 0.8473676381982552 0.54728904376288 0.8473676381982552 L 0.7690928911003959 0.8473676381982552 C 0.779328392372413 0.7070530144959267 0.8279109645108105 0.5722460511111769 0.9095381516107618 0.45766000729621087 L 0.8161791732266086 0.364250179795289 C 0.7379997982047888 0.46881834970504405 0.6835167368472539 0.5891495696141217 0.6565129465783279 0.7168888045742141 L 0.54728904376288 0.7168888045742141 C 0.2450418937000203 0.7168888045742143 -2.7394981603853294e-16 0.9619306982742346 -2.7394981603853294e-16 1.2642286974538615 C -2.7394981603853294e-16 1.5665266966334883 0.24504189370002016 1.8115685903335086 0.54728904376288 1.8115685903335086 L 1.1421728608196426 1.8115685903335086 C 1.0987591941387345 1.7735819392518506 1.0609268863178432 1.7296553773204448 1.0297963127646423 1.681089756709468 M 2.537065831971118 0.7168888045742144 L 2.42784192915567 0.7168888045742144 C 2.4008580605276975 0.5891522197563953 2.3463920525150206 0.46882034158885266 2.2682265516241564 0.36425017979528956 L 2.174816724123236 0.4576600072962099 C 2.2564596747284735 0.5722418472957089 2.3050597462163576 0.7070485602465382 2.315312833750369 0.8473676381982552 L 2.537065831971118 0.8473676381982552 C 2.7669038397578145 0.8473676381982552 2.9539268912267245 1.0343398405503976 2.9539268912267245 1.2642286974538617 C 2.9539268912267245 1.4940667052405585 2.7669038397578145 1.681089756709468 2.537065831971118 1.681089756709468 L 2.537065831971118 1.6808863602424002 L 2.406586998347077 1.6808863602424002 L 2.406586998347077 1.681089756709468 L 2.0545585629693557 1.681089756709468 C 2.0234279894161546 1.7296553773204446 1.985595681595264 1.7735819392518501 1.9421820149143563 1.8115685903335077 L 2.537065831971118 1.8115685903335077 C 2.8393638311507448 1.8115685903335088 3.0844057248507646 1.5665266966334883 3.0844057248507646 1.2642286974538617 C 3.0844057248507646 0.9619306982742348 2.839363831150744 0.7168888045742144 2.5370658319711175 0.7168888045742144" fill="#67a97b" transform="matrix(1,0,0,1,0,0)" fill-rule="nonzero"></path></g><g clip-path="url(#b15e4569d-9863-4d46-a648-ef4c70cf1b69dd52b24f-dd3d-45c1-b8ab-02f0d9249e81)"><path d=" M 2.0546094120861227 1.681089756709468 C 1.9464024916060139 1.8499088243758028 1.7572437772328917 1.962132825080502 1.5422028624253825 1.962132825080502 C 1.3272127967346405 1.962132825080502 1.1380540823615184 1.849908824375803 1.0298471618814096 1.681089756709468 L 0.8743505628080206 1.681089756709468 C 0.995676555414007 1.9276062747957305 1.249464497197946 2.0976457212644726 1.5422028624253827 2.0976457212644726 C 1.8349920767695862 2.0976457212644726 2.0887800185535252 1.9276062747957305 2.2100551620427447 1.681089756709468 Z" fill="#67a97b" transform="matrix(1,0,0,1,0,0)" fill-rule="nonzero"></path></g></g><g><path d=" M -0.4366614998301337 1.0488228606322363 A 1.9788618616168248 1.9788618616168248 0 0 1 3.521062223403516 1.0488228606322363 A 1.9788618616168248 1.9788618616168248 0 0 1 -0.4366614998301337 1.0488228606322363 Z M -0.38666149983013365 1.0488228606322365 A 1.928861861616825 1.928861861616825 0 0 0 3.471062223403516 1.0488228606322365 A 1.928861861616825 1.928861861616825 0 0 0 -0.38666149983013387 1.0488228606322365 Z" fill="#1c3423" fill-rule="nonzero"></path></g><g transform="matrix(0.42806730205512766,-0.9037468588665988,0.9037468588665988,0.42806730205512766,-0.6974100088641833,-0.6183047769645349)"><g clip-path="url(#SvgjsClipPath1002)"><path d=" M -0.8372161544431129 0.437253553599258 C -0.8251359478913887 0.437253553599258 -0.8189987578913887 0.42900881808201663 -0.8076865182362163 0.41405091739236144 L -0.6941692296155266 0.26237527359925805 C -0.6880320396155266 0.25432034808201665 -0.6851565272017336 0.2466515877371891 -0.6851565272017336 0.23840467049580977 C -0.6851565272017336 0.2301599349785684 -0.6880320396155266 0.2224889929096029 -0.6941692296155266 0.21443624911649944 L -0.8076865182362163 0.06275951446132705 C -0.8189987578913887 0.04780292280615464 -0.8251359478913887 0.03955753277167187 -0.8372161544431129 0.03955753277167187 C -0.8494883527189749 0.03955753277167187 -0.855625542718975 0.04780292280615464 -0.8669377823741473 0.06275951446132705 L -0.9804557255120784 0.21443624911649944 C -0.9865918246500094 0.2224889929096029 -0.9894682097534577 0.2301599349785684 -0.9894682097534577 0.23840467049580977 C -0.9894682097534577 0.2466515877371891 -0.9865918246500094 0.25432034808201665 -0.9804557255120784 0.26237527359925805 L -0.8669377823741473 0.41405091739236144 C -0.855625542718975 0.42900881808201663 -0.8494883527189749 0.437253553599258 -0.8372161544431129 0.437253553599258 Z" fill="#1c3423" transform="matrix(1,0,0,1,0,0)" fill-rule="nonzero"></path></g></g><g transform="matrix(-0.42806730205512766,-0.9037468588665988,-0.9037468588665988,0.42806730205512766,5.818911549573371,3.6824756279914457)"><g clip-path="url(#SvgjsClipPath1003)"><path d=" M 3.9216168780164944 0.437253553599258 C 3.933697084568218 0.437253553599258 3.939834274568218 0.42900881808201663 3.9511465142233906 0.41405091739236144 L 4.0646638028440805 0.26237527359925805 C 4.070800992844081 0.25432034808201665 4.073676505257874 0.2466515877371891 4.073676505257874 0.23840467049580977 C 4.073676505257874 0.2301599349785684 4.070800992844081 0.2224889929096029 4.0646638028440805 0.21443624911649944 L 3.9511465142233906 0.06275951446132705 C 3.939834274568218 0.04780292280615464 3.933697084568218 0.03955753277167187 3.9216168780164944 0.03955753277167187 C 3.909344679740632 0.03955753277167187 3.903207489740632 0.04780292280615464 3.89189525008546 0.06275951446132705 L 3.7783773069475286 0.21443624911649944 C 3.7722412078095977 0.2224889929096029 3.7693648227061494 0.2301599349785684 3.7693648227061494 0.23840467049580977 C 3.7693648227061494 0.2466515877371891 3.7722412078095977 0.25432034808201665 3.7783773069475286 0.26237527359925805 L 3.89189525008546 0.41405091739236144 C 3.903207489740632 0.42900881808201663 3.909344679740632 0.437253553599258 3.9216168780164944 0.437253553599258 Z" fill="#1c3423" transform="matrix(1,0,0,1,0,0)" fill-rule="nonzero"></path></g></g></g><defs><clipPath id="SvgjsClipPath1001"><path d=" M 0 0 h 3.084400723573382 v 2.0976457212644726 h -3.084400723573382 Z"></path></clipPath><clipPath id="b15e4569d-9863-4d46-a648-ef4c70cf1b69dd52b24f-dd3d-45c1-b8ab-02f0d9249e81"><path d=" M -0.050849116766968336 -0.05083116037347356 L 3.1352548416177335 -0.05083116037347356 L 3.1352548416177335 2.148494838031441 L -0.050849116766968336 2.148494838031441 Z"></path></clipPath><clipPath id="SvgjsClipPath1002"><path d=" M -1.1426575337534577 -0.07449166019384534 h 0.6108827586206896 v 0.6326999999999999 h -0.6108827586206896 Z"></path></clipPath><clipPath id="SvgjsClipPath1003"><path d=" M 3.6161754987061494 -0.07449166019384534 h 0.6108827586206896 v 0.6326999999999999 h -0.6108827586206896 Z"></path></clipPath></defs></svg>